<svg xmlns="http://www.w3.org/2000/svg" xmlns:xlink="http://www.w3.org/1999/xlink" width="500" zoomAndPan="magnify" viewBox="0 0 375 374.999991" height="500" preserveAspectRatio="xMidYMid meet" version="1.0"><defs><clipPath id="b448f5ff8c"><path d="M 131.25 235.527344 L 146.824219 235.527344 L 146.824219 243.75 L 131.25 243.75 Z M 131.25 235.527344 " clip-rule="nonzero"/></clipPath><clipPath id="8cc38c4a43"><path d="M 135.359375 235.527344 L 142.714844 235.527344 C 144.984375 235.527344 146.824219 237.371094 146.824219 239.640625 C 146.824219 241.910156 144.984375 243.75 142.714844 243.75 L 135.359375 243.75 C 133.089844 243.75 131.25 241.910156 131.25 239.640625 C 131.25 237.371094 133.089844 235.527344 135.359375 235.527344 Z M 135.359375 235.527344 " clip-rule="nonzero"/></clipPath><clipPath id="0b8c584048"><path d="M 0.25 0.527344 L 15.824219 0.527344 L 15.824219 8.75 L 0.25 8.75 Z M 0.25 0.527344 " clip-rule="nonzero"/></clipPath><clipPath id="8968201387"><path d="M 4.359375 0.527344 L 11.714844 0.527344 C 13.984375 0.527344 15.824219 2.371094 15.824219 4.640625 C 15.824219 6.910156 13.984375 8.75 11.714844 8.75 L 4.359375 8.75 C 2.089844 8.75 0.25 6.910156 0.25 4.640625 C 0.25 2.371094 2.089844 0.527344 4.359375 0.527344 Z M 4.359375 0.527344 " clip-rule="nonzero"/></clipPath><clipPath id="e2461bee6b"><rect x="0" width="16" y="0" height="9"/></clipPath></defs><path fill="#ffffff" d="M 271.707031 165.894531 C 275.230469 142.339844 257.296875 129.675781 232.769531 121.226562 L 239.664062 93.589844 C 240.25 91.230469 238.816406 88.84375 236.457031 88.253906 L 225.574219 85.542969 C 223.214844 84.957031 220.828125 86.390625 220.238281 88.75 L 213.558594 115.546875 C 208.453125 114.273438 203.207031 113.074219 197.996094 111.886719 L 204.730469 84.878906 C 205.320312 82.523438 203.882812 80.132812 201.527344 79.546875 L 190.652344 76.835938 C 188.296875 76.246094 185.90625 77.679688 185.320312 80.039062 L 178.425781 107.667969 C 174.199219 106.707031 170.046875 105.757812 166.019531 104.753906 L 166.042969 104.652344 L 143.527344 99.03125 C 141.171875 98.441406 138.78125 99.878906 138.191406 102.238281 L 135.171875 114.375 C 134.578125 116.753906 136.042969 119.160156 138.429688 119.71875 C 142.648438 120.710938 148.390625 122.089844 148.199219 122.21875 C 156.0625 124.179688 157.484375 129.386719 157.25 133.515625 L 148.1875 169.867188 C 148.730469 170.003906 149.429688 170.203125 150.207031 170.515625 C 149.558594 170.355469 148.867188 170.179688 148.152344 170.007812 L 135.449219 220.933594 C 134.488281 223.324219 132.050781 226.910156 126.550781 225.546875 C 126.683594 225.738281 118.1875 223.5625 112.800781 222.164062 C 110.425781 221.546875 108.011719 222.992188 107.425781 225.375 L 103.835938 240 C 103.257812 242.355469 104.691406 244.734375 107.042969 245.320312 L 128.066406 250.558594 C 132.769531 251.738281 137.375 252.972656 141.914062 254.132812 L 134.941406 282.140625 C 134.351562 284.496094 135.789062 286.886719 138.144531 287.472656 L 149.007812 290.183594 C 151.367188 290.773438 153.753906 289.335938 154.34375 286.976562 L 161.238281 259.316406 C 166.539062 260.753906 171.683594 262.082031 176.71875 263.332031 L 169.851562 290.84375 C 169.261719 293.203125 170.699219 295.59375 173.058594 296.179688 L 183.941406 298.890625 C 186.300781 299.480469 188.6875 298.042969 189.277344 295.6875 L 196.246094 267.742188 C 229.371094 274.007812 254.277344 271.480469 264.757812 241.523438 C 273.207031 217.402344 264.339844 203.488281 246.914062 194.417969 C 259.605469 191.488281 269.164062 183.140625 271.714844 165.898438 Z M 227.328125 228.128906 C 221.324219 252.246094 180.710938 239.207031 167.542969 235.9375 L 178.210938 193.179688 C 191.378906 196.464844 233.601562 202.972656 227.328125 228.128906 Z M 233.332031 165.546875 C 227.859375 187.484375 194.054688 176.339844 183.089844 173.605469 L 192.761719 134.824219 C 203.726562 137.558594 239.039062 142.660156 233.335938 165.546875 Z M 233.332031 165.546875 " fill-opacity="1" fill-rule="nonzero"/><path fill="#ffffff" d="M 368.574219 139.460938 C 355.644531 91.207031 324.699219 50.878906 281.4375 25.902344 C 238.175781 0.925781 187.777344 -5.710938 139.523438 7.21875 C 91.273438 20.148438 50.941406 51.09375 25.964844 94.355469 C 0.988281 137.617188 -5.648438 188.015625 7.28125 236.265625 C 20.210938 284.519531 51.15625 324.847656 94.417969 349.824219 C 123.238281 366.464844 155.214844 374.960938 187.625 374.960938 C 203.867188 374.960938 220.222656 372.824219 236.332031 368.507812 C 284.582031 355.578125 324.914062 324.632812 349.890625 281.371094 C 374.867188 238.109375 381.503906 187.710938 368.574219 139.460938 Z M 358.753906 227.515625 L 345.730469 224.027344 C 342.601562 223.1875 339.382812 225.042969 338.546875 228.175781 C 337.707031 231.304688 339.5625 234.523438 342.695312 235.359375 L 355.691406 238.84375 C 351.824219 251.484375 346.5 263.773438 339.726562 275.503906 C 332.96875 287.210938 325.007812 297.945312 316.019531 307.597656 L 307.519531 299.101562 C 307.265625 298.652344 306.949219 298.230469 306.570312 297.847656 C 304.285156 295.550781 300.5625 295.546875 298.265625 297.828125 L 298.121094 297.96875 C 297.011719 299.070312 296.390625 300.5625 296.386719 302.121094 C 296.386719 303.683594 297.003906 305.179688 298.105469 306.28125 L 307.742188 315.917969 C 288.359375 334.101562 264.960938 347.660156 238.933594 355.550781 L 235.4375 342.496094 C 235.03125 340.988281 234.042969 339.703125 232.691406 338.925781 C 231.339844 338.148438 229.730469 337.941406 228.226562 338.351562 L 228.042969 338.40625 C 224.914062 339.238281 223.046875 342.453125 223.882812 345.582031 C 224.027344 346.128906 224.242188 346.632812 224.519531 347.09375 L 227.597656 358.589844 C 201.128906 364.761719 174.097656 364.722656 148.230469 358.679688 L 151.722656 345.648438 C 152.5625 342.519531 150.703125 339.300781 147.574219 338.464844 C 144.445312 337.628906 141.226562 339.484375 140.386719 342.613281 L 136.90625 355.613281 C 124.28125 351.746094 112.003906 346.429688 100.285156 339.664062 C 88.5625 332.894531 77.8125 324.917969 68.148438 315.914062 L 77.78125 306.28125 C 80.074219 303.988281 80.074219 300.273438 77.78125 297.984375 L 77.621094 297.828125 C 75.332031 295.535156 71.617188 295.535156 69.324219 297.828125 C 68.929688 298.222656 68.601562 298.660156 68.34375 299.125 L 59.832031 307.636719 C 41.664062 288.253906 28.113281 264.855469 20.230469 238.835938 L 33.195312 235.359375 C 36.324219 234.523438 38.183594 231.304688 37.34375 228.175781 C 36.503906 225.046875 33.289062 223.1875 30.15625 224.027344 L 17.195312 227.5 C 11.023438 201.023438 11.070312 173.992188 17.125 148.125 L 30.59375 151.734375 C 31.101562 151.871094 31.613281 151.9375 32.117188 151.9375 C 34.707031 151.9375 37.078125 150.207031 37.78125 147.585938 C 38.621094 144.457031 36.761719 141.238281 33.632812 140.398438 L 20.191406 136.796875 C 24.054688 124.1875 29.371094 111.925781 36.128906 100.222656 C 42.898438 88.492188 50.882812 77.738281 59.894531 68.070312 L 69.667969 77.84375 C 70.816406 78.988281 72.316406 79.5625 73.816406 79.5625 C 75.320312 79.5625 76.820312 78.988281 77.964844 77.84375 C 80.257812 75.554688 80.257812 71.835938 77.964844 69.546875 L 68.171875 59.753906 C 87.542969 41.597656 110.921875 28.058594 136.921875 20.175781 L 140.488281 33.480469 C 141.191406 36.101562 143.558594 37.832031 146.152344 37.832031 C 146.652344 37.832031 147.164062 37.765625 147.671875 37.628906 C 150.804688 36.792969 152.660156 33.574219 151.820312 30.445312 L 148.253906 17.125 C 161.503906 14.035156 174.898438 12.503906 188.214844 12.503906 C 201.496094 12.503906 214.707031 14.027344 227.625 17.046875 L 224.015625 30.511719 C 223.175781 33.644531 225.035156 36.859375 228.164062 37.699219 C 228.671875 37.835938 229.183594 37.898438 229.6875 37.898438 C 232.277344 37.898438 234.648438 36.171875 235.351562 33.550781 L 238.953125 20.105469 C 251.578125 23.972656 263.851562 29.296875 275.570312 36.0625 C 287.28125 42.824219 298.023438 50.792969 307.679688 59.789062 L 297.921875 69.546875 C 295.632812 71.835938 295.632812 75.554688 297.921875 77.84375 C 299.070312 78.988281 300.570312 79.5625 302.070312 79.5625 C 303.574219 79.5625 305.074219 78.988281 306.21875 77.84375 L 316 68.066406 C 334.164062 87.4375 347.714844 110.820312 355.605469 136.824219 L 342.257812 140.398438 C 339.128906 141.238281 337.269531 144.457031 338.109375 147.585938 C 338.8125 150.207031 341.183594 151.9375 343.773438 151.9375 C 344.273438 151.9375 344.785156 151.871094 345.292969 151.734375 L 358.644531 148.15625 C 364.824219 174.625 364.792969 201.652344 358.753906 227.515625 Z M 358.753906 227.515625 " fill-opacity="1" fill-rule="nonzero"/><path fill="#ffffff" d="M 349.476562 182.175781 L 336.34375 182.175781 C 335.925781 171.320312 334.308594 160.347656 331.382812 149.425781 C 328.46875 138.550781 324.40625 128.28125 319.371094 118.710938 L 330.632812 112.210938 C 333.4375 110.589844 334.398438 107 332.777344 104.195312 C 331.160156 101.390625 327.570312 100.429688 324.765625 102.046875 L 313.503906 108.546875 C 301.566406 89.671875 285.628906 73.996094 267.179688 62.355469 L 273.765625 50.949219 C 275.382812 48.144531 274.421875 44.554688 271.617188 42.933594 C 268.8125 41.316406 265.222656 42.277344 263.601562 45.082031 L 257.015625 56.488281 C 237.695312 46.316406 216.125 40.363281 193.789062 39.464844 L 193.789062 26.488281 C 193.789062 23.246094 191.164062 20.621094 187.921875 20.621094 C 184.679688 20.621094 182.054688 23.246094 182.054688 26.488281 L 182.054688 39.457031 C 171.261719 39.886719 160.351562 41.5 149.488281 44.410156 C 138.628906 47.320312 128.378906 51.375 118.820312 56.398438 L 112.289062 45.082031 C 110.667969 42.277344 107.078125 41.316406 104.273438 42.933594 C 101.46875 44.554688 100.503906 48.144531 102.125 50.949219 L 108.65625 62.257812 C 89.769531 74.191406 74.085938 90.128906 62.4375 108.578125 L 51.125 102.046875 C 48.320312 100.425781 44.730469 101.386719 43.109375 104.195312 C 41.492188 107 42.453125 110.589844 45.257812 112.210938 L 56.570312 118.738281 C 46.363281 138.117188 40.394531 159.765625 39.519531 182.175781 L 26.367188 182.175781 C 23.125 182.175781 20.5 184.800781 20.5 188.042969 C 20.5 191.28125 23.125 193.910156 26.367188 193.910156 L 39.527344 193.910156 C 39.964844 204.644531 41.578125 215.496094 44.472656 226.300781 C 47.394531 237.199219 51.46875 247.484375 56.515625 257.070312 L 45.316406 263.535156 C 42.511719 265.15625 41.550781 268.742188 43.167969 271.550781 C 44.257812 273.433594 46.226562 274.484375 48.257812 274.484375 C 49.25 274.484375 50.261719 274.230469 51.183594 273.699219 L 62.390625 267.226562 C 74.332031 286.085938 90.253906 301.761719 108.695312 313.390625 L 102.875 323.464844 C 102.492188 323.839844 102.152344 324.273438 101.871094 324.761719 C 100.253906 327.570312 101.226562 331.15625 104.035156 332.769531 L 104.242188 332.886719 C 105.160156 333.410156 106.160156 333.660156 107.148438 333.660156 C 109.175781 333.660156 111.148438 332.609375 112.234375 330.726562 L 118.855469 319.257812 C 138.167969 329.417969 159.730469 335.363281 182.054688 336.261719 L 182.054688 349.597656 C 182.054688 352.835938 184.679688 355.464844 187.921875 355.464844 C 191.164062 355.464844 193.789062 352.835938 193.789062 349.597656 L 193.789062 336.273438 C 204.585938 335.847656 215.5 334.226562 226.367188 331.316406 C 237.234375 328.40625 247.5 324.34375 257.066406 319.3125 L 263.65625 330.726562 C 264.738281 332.605469 266.714844 333.652344 268.746094 333.652344 C 269.742188 333.652344 270.746094 333.402344 271.667969 332.875 L 271.855469 332.769531 C 274.664062 331.15625 275.625 327.574219 274.011719 324.765625 C 273.738281 324.289062 273.40625 323.863281 273.03125 323.496094 L 267.230469 313.449219 C 286.09375 301.523438 301.757812 285.597656 313.394531 267.167969 L 324.707031 273.699219 C 325.628906 274.230469 326.636719 274.484375 327.632812 274.484375 C 329.660156 274.484375 331.632812 273.433594 332.71875 271.550781 C 334.339844 268.742188 333.378906 265.15625 330.574219 263.535156 L 319.269531 257.007812 C 329.429688 237.726562 335.410156 216.203125 336.332031 193.910156 L 349.476562 193.910156 C 352.714844 193.910156 355.34375 191.28125 355.34375 188.042969 C 355.34375 184.800781 352.714844 182.175781 349.476562 182.175781 Z M 256.464844 306.238281 C 256.417969 306.265625 256.375 306.28125 256.332031 306.308594 C 256.28125 306.335938 256.238281 306.367188 256.191406 306.398438 C 246.097656 312.214844 235.101562 316.828125 223.328125 319.980469 C 211.515625 323.148438 199.648438 324.660156 187.957031 324.660156 C 139.417969 324.65625 94.09375 298.574219 69.6875 256.636719 C 69.632812 256.535156 69.585938 256.429688 69.53125 256.332031 C 69.464844 256.222656 69.394531 256.121094 69.324219 256.015625 C 63.539062 245.953125 58.949219 234.992188 55.808594 223.265625 C 52.773438 211.945312 51.261719 200.566406 51.140625 189.355469 C 51.238281 188.929688 51.296875 188.492188 51.296875 188.042969 C 51.296875 187.59375 51.242188 187.160156 51.144531 186.742188 C 51.65625 126.804688 91.875 71.996094 152.527344 55.746094 C 164.339844 52.578125 176.207031 51.066406 187.898438 51.066406 C 248.28125 51.066406 303.691406 91.425781 320.046875 152.460938 C 336.382812 213.433594 308.648438 276.007812 256.464844 306.238281 Z M 256.464844 306.238281 " fill-opacity="1" fill-rule="nonzero"/><g clip-path="url(#b448f5ff8c)"><g clip-path="url(#8cc38c4a43)"><g transform="matrix(1, 0, 0, 1, 131, 235)"><g clip-path="url(#e2461bee6b)"><g clip-path="url(#0b8c584048)"><g clip-path="url(#8968201387)"><path fill="#ffffff" d="M 0.25 0.527344 L 15.824219 0.527344 L 15.824219 8.75 L 0.25 8.75 Z M 0.25 0.527344 " fill-opacity="1" fill-rule="nonzero"/></g></g></g></g></g></g></svg>